HIERARCHY
ROOT Hips
{
	OFFSET 0.000000 8.830580 0.000000
	CHANNELS 6 Xposition Yposition Zposition Zrotation Yrotation Xrotation 
	JOINT Spine
	{
		OFFSET 0.000000 0.010000 0.000000
		CHANNELS 3 Zrotation Yrotation Xrotation
		JOINT Spine1
		{
			OFFSET 0.000000 2.459130 0.000000
			CHANNELS 3 Zrotation Yrotation Xrotation
			JOINT Neck
			{
				OFFSET 0.000000 2.484630 0.000000
				CHANNELS 3 Zrotation Yrotation Xrotation
				JOINT Head_virtual
				{
					OFFSET 0.000000 0.000000 0.000000
					CHANNELS 3 Zrotation Yrotation Xrotation
					JOINT Head
					{
						OFFSET 0.000000 0.927525 0.000000
						CHANNELS 3 Zrotation Yrotation Xrotation
						End Site
						{
							OFFSET 0.000000 0.000000 0.000000
						}
					}
				}
				JOINT LeftUpArm_virtual
				{
					OFFSET 0.000000 0.000000 0.000000
					CHANNELS 3 Zrotation Yrotation Xrotation
					JOINT LeftUpArm
					{
						OFFSET 1.248820 0.000000 0.000000
						CHANNELS 3 Zrotation Yrotation Xrotation
						JOINT LeftForeArm
						{
							OFFSET 2.597580 0.000000 0.000000
							CHANNELS 3 Zrotation Yrotation Xrotation
							JOINT LeftHand
							{
								OFFSET 2.455420 0.000000 0.000000
								CHANNELS 3 Zrotation Yrotation Xrotation
								End Site
								{
									OFFSET 0.000000 0.000000 0.000000
								}
							}
						}
					}
				}
				JOINT RightUpArm_virtual
				{
					OFFSET -0.000000 -0.000000 -0.000000
					CHANNELS 3 Zrotation Yrotation Xrotation
					JOINT RightUpArm
					{
						OFFSET -1.248820 -0.000000 -0.000000
						CHANNELS 3 Zrotation Yrotation Xrotation
						JOINT RightForeArm
						{
							OFFSET -2.597580 -0.000000 -0.000000
							CHANNELS 3 Zrotation Yrotation Xrotation
							JOINT RightHand
							{
								OFFSET -2.455420 -0.000000 -0.000000
								CHANNELS 3 Zrotation Yrotation Xrotation
								End Site
								{
									OFFSET 0.000000 0.000000 0.000000
								}
							}
						}
					}
				}
			}
		}
	}
	JOINT LeftUpLeg
	{
		OFFSET 1.271939 0.000000 0.000000
		CHANNELS 3 Zrotation Yrotation Xrotation
		JOINT LeftLowLeg
		{
			OFFSET 0.000000 -4.342910 0.000000
			CHANNELS 3 Zrotation Yrotation Xrotation
			JOINT LeftFoot
			{
				OFFSET 0.000000 -4.487670 0.000000
				CHANNELS 3 Zrotation Yrotation Xrotation
				JOINT LeftToeBase
				{
					OFFSET 0.000000 0.000000 1.515070
					CHANNELS 3 Zrotation Yrotation Xrotation
					End Site
					{
						OFFSET 0.000000 0.000000 0.000000
					}
				}
			}
		}
	}
	JOINT RightUpLeg
	{
		OFFSET -1.271939 0.000000 0.000000
		CHANNELS 3 Zrotation Yrotation Xrotation
		JOINT RightLowLeg
		{
			OFFSET 0.000000 -4.342910 0.000000
			CHANNELS 3 Zrotation Yrotation Xrotation
			JOINT RightFoot
			{
				OFFSET 0.000000 -4.487670 0.000000
				CHANNELS 3 Zrotation Yrotation Xrotation
				JOINT RightToeBase
				{
					OFFSET 0.000000 0.000000 1.515070
					CHANNELS 3 Zrotation Yrotation Xrotation
					End Site
					{
						OFFSET 0.000000 0.000000 0.000000
					}
				}
			}
		}
	}
}
MOTION
Frames: 5
Frame Time: 0.041667
-12.760767 9.160283 40.504533 -175.144288 -12.173685 -169.577467 4.509358 -0.403870 10.817872 11.810096 -3.314011 6.449371 0.000000 0.000000 0.000000 -22.133804 -12.557886 -10.686566 10.011025 26.165541 -95.130231 -17.965599 -1.424220 3.420500 2.666450 -31.789499 -28.747499 0.000000 -54.095798 0.000000 40.039101 8.617180 -4.880820 23.760700 5.687740 18.802799 29.751499 32.658199 44.768600 180.000000 82.345398 180.000000 -29.987700 -12.589600 24.345900 12.820469 -5.845407 -22.643019 0.000000 0.000000 14.990500 -21.910299 2.701979 6.075910 0.000000 0.000000 -33.991100 7.655896 0.594631 -20.288841 0.000000 0.000000 20.497200 15.854244 -0.971921 7.784117 0.000000 0.000000 -40.032301 
-12.728321 9.177502 40.486090 -175.169948 -13.197939 -169.132445 4.173895 -0.929260 10.725427 13.171677 -3.808062 5.692730 0.000000 0.000000 0.000000 -25.837786 -11.549451 -10.785262 10.675137 25.601885 -94.881853 -16.576700 -2.544520 3.119620 6.750310 -33.316200 -32.664799 0.000000 -49.586700 0.000000 39.500000 8.819010 -3.146650 23.612801 5.677170 19.017599 29.318899 32.381302 44.327301 -180.000000 82.634102 -180.000000 -29.224001 -12.851100 23.887600 12.781848 -5.546964 -22.588675 0.000000 0.000000 13.525600 -21.924818 2.798011 7.184971 0.000000 0.000000 -34.450899 8.135496 -0.745226 -20.154378 0.000000 0.000000 19.521500 15.653743 -0.951563 8.314475 0.000000 0.000000 -39.966900 
-12.704438 9.193643 40.467746 -175.236487 -14.229008 -168.508726 4.072391 -1.490624 10.436871 14.073561 -4.273456 4.950879 0.000000 0.000000 0.000000 -29.917987 -10.088158 -10.967396 11.187503 25.209585 -94.485423 -15.096000 -3.876470 2.860620 11.252000 -34.489700 -36.173901 0.000000 -44.352501 0.000000 38.951401 8.711040 -0.592029 23.578100 5.642910 19.124800 29.068701 32.115601 44.179298 -180.000000 82.896400 -180.000000 -29.254101 -13.312500 23.818001 12.486574 -5.049381 -22.631771 0.000000 0.000000 11.966100 -21.795944 3.440729 8.130615 0.000000 0.000000 -35.054001 8.638080 -2.354584 -20.203901 0.000000 0.000000 18.571199 15.483963 -0.772784 8.858462 0.000000 0.000000 -40.241899 
-12.682132 9.209181 40.448094 -175.343866 -15.183549 -167.951075 3.986803 -2.044107 10.187152 14.762935 -4.732542 4.254592 0.000000 0.000000 0.000000 -34.080616 -8.335818 -11.080792 10.838371 25.157110 -94.168932 -13.721000 -5.361400 3.311520 16.545799 -34.841900 -39.282799 0.000000 -38.802101 0.000000 38.599602 8.633470 4.080250 23.583799 5.645120 19.333000 28.928600 31.993401 44.004200 -180.000000 83.224503 -180.000000 -29.262699 -13.735600 23.740700 11.936910 -4.186693 -22.552581 0.000000 0.000000 10.417100 -21.622271 3.967554 9.078330 0.000000 0.000000 -35.249901 9.035726 -3.553935 -20.202240 0.000000 0.000000 17.648899 15.348321 -0.873912 9.253776 0.000000 0.000000 -40.239099 
-12.662898 9.222771 40.427719 -175.581217 -15.947589 -167.198280 3.763665 -2.485035 9.734313 15.415709 -5.108303 3.538833 0.000000 0.000000 0.000000 -39.110787 -6.274696 -11.218838 10.570830 25.214486 -93.974108 -12.505400 -6.969660 3.851120 21.610001 -34.690201 -41.635700 0.000000 -33.296299 0.000000 36.531200 8.180450 7.962350 23.499599 5.857630 19.269300 29.103600 31.550699 44.050098 -180.000000 83.521698 -180.000000 -29.314800 -13.903600 24.015200 11.167529 -3.240986 -22.602647 0.000000 0.000000 8.942290 -21.033223 4.568691 9.997561 0.000000 0.000000 -35.941700 9.173701 -4.148428 -20.420579 0.000000 0.000000 16.883600 15.290492 -1.157083 9.427380 0.000000 0.000000 -40.180300 
